<svg width="153" height="36" viewBox="0 0 153 36" fill="none" xmlns="http://www.w3.org/2000/svg">
<path fill-rule="evenodd" clip-rule="evenodd" d="M38.2864 24.387C38.5516 24.6554 38.9019 24.8035 39.2712 24.7943C39.6405 24.8035 39.9908 24.6647 40.2559 24.387C40.5116 24.1093 40.6441 23.7483 40.6347 23.3688V20.3882H42.6893C45.4447 20.3882 47.3763 18.6572 47.3763 16.0931C47.3763 13.5476 45.5015 11.8352 42.6893 11.8352H39.2901C38.9208 11.8259 38.561 11.9647 38.2959 12.2424C38.0403 12.5109 37.8982 12.8719 37.9077 13.2607V23.3688C37.8982 23.7483 38.0308 24.1185 38.2864 24.387ZM42.7092 18.037H40.6356V14.1956H42.7092C43.8455 14.1956 44.6029 14.9546 44.6029 16.1024C44.6314 16.6208 44.442 17.1299 44.0822 17.5001C43.7129 17.8704 43.2205 18.0648 42.7092 18.037Z" fill="white"/>
<path fill-rule="evenodd" clip-rule="evenodd" d="M58.784 23.9317C59.0513 24.3853 59.5573 24.6537 60.1015 24.6445C60.8144 24.6453 61.4025 24.1036 61.4382 23.4133C61.4191 22.9968 61.2663 22.5988 60.999 22.2748L58.9749 19.5071L59.2613 19.3127C60.3624 18.5343 61.0007 17.2827 60.9703 15.9619C60.9703 13.4348 58.9845 11.7316 56.0056 11.7316H52.4062C52.0132 11.7159 51.6312 11.8598 51.3522 12.1286C51.0731 12.3974 50.9223 12.7667 50.9359 13.1479V23.2282C50.9359 24.0002 51.5814 24.6259 52.3776 24.6259C53.1738 24.6259 53.8193 24.0002 53.8193 23.2282V20.2476H56.2539L58.784 23.9317ZM56.0251 17.9058H53.8291V14.0828H56.0251C57.2185 14.0828 58.03 14.8419 58.03 15.9804C58.0583 16.5023 57.8555 17.011 57.4725 17.3787C57.0896 17.7464 56.563 17.9382 56.0251 17.9058Z" fill="white"/>
<path fill-rule="evenodd" clip-rule="evenodd" d="M63.52 18.1353C63.52 21.8164 66.5947 24.692 70.5317 24.692C74.4875 24.692 77.5809 21.8164 77.5809 18.1353C77.5809 14.4542 74.4594 11.5786 70.5317 11.5786C66.604 11.5786 63.52 14.4542 63.52 18.1353ZM67.6109 15.2071C68.3885 14.4355 69.4551 14.0264 70.5497 14.08C71.6426 14.0322 72.7059 14.4431 73.4821 15.2135C74.2584 15.9838 74.677 17.0433 74.6367 18.1358C74.6367 20.5243 72.9869 22.1916 70.5497 22.1916C69.4527 22.2541 68.3808 21.8479 67.6012 21.0742C66.8215 20.3006 66.4076 19.2323 66.4626 18.1358C66.4165 17.0417 66.8333 15.9787 67.6109 15.2071Z" fill="white"/>
<path d="M85.1333 24.6913C84.7468 24.6966 84.375 24.5464 84.1044 24.2756C83.8338 24.0048 83.6881 23.6371 83.7012 23.2582V14.0694H80.6651C79.9681 14.0694 79.4048 13.5074 79.4048 12.8237C79.4048 12.1305 79.9681 11.5779 80.6651 11.5779H89.6015C90.2985 11.5779 90.8618 12.1399 90.8618 12.8237C90.8618 13.5074 90.2985 14.0694 89.6015 14.0694H86.575V23.2488C86.5845 23.6328 86.4413 24.0075 86.1644 24.2791C85.8875 24.5601 85.5152 24.7006 85.1237 24.6913H85.1333Z" fill="white"/>
<path fill-rule="evenodd" clip-rule="evenodd" d="M91.6411 18.1356C91.6411 21.8167 94.7158 24.6922 98.6528 24.6922C102.599 24.6922 105.702 21.8167 105.702 18.1356C105.702 14.4544 102.58 11.5789 98.6528 11.5789C94.7251 11.5789 91.6411 14.4544 91.6411 18.1356ZM95.7327 15.2072C96.5103 14.4355 97.5769 14.0265 98.6715 14.0801C99.7645 14.0323 100.828 14.4432 101.604 15.2135C102.38 15.9839 102.799 17.0434 102.758 18.1359C102.758 20.5244 101.109 22.1916 98.6715 22.1916C97.5745 22.2542 96.5026 21.848 95.723 21.0743C94.9434 20.3006 94.5295 19.2324 94.5845 18.1359C94.5384 17.0418 94.9551 15.9788 95.7327 15.2072Z" fill="white"/>
<path d="M109.971 24.7881C109.591 24.8013 109.223 24.6555 108.959 24.3873C108.692 24.1077 108.549 23.7349 108.577 23.362V13.1651C108.558 12.7736 108.701 12.4101 108.969 12.1398C109.236 11.8602 109.608 11.7204 109.99 11.7297H115.929C116.607 11.7297 117.161 12.2889 117.161 12.9694C117.168 13.2939 117.042 13.6079 116.811 13.841C116.579 14.074 116.261 14.2066 115.929 14.209H111.375V17.4713H114.86C115.547 17.4713 116.101 18.0305 116.101 18.7203C116.106 19.0449 115.977 19.3579 115.744 19.5892C115.511 19.8204 115.192 19.9507 114.86 19.9506H111.375V23.3527C111.394 23.7255 111.251 24.0984 110.983 24.378C110.716 24.6483 110.353 24.7881 109.971 24.7788V24.7881Z" fill="white"/>
<path d="M122.369 24.7879C121.994 24.7972 121.619 24.6574 121.356 24.3964C121.087 24.1318 120.944 23.7657 120.963 23.3898V13.1835C120.944 12.6802 121.206 12.1955 121.647 11.9345C122.092 11.6722 122.645 11.6722 123.09 11.9345C123.531 12.1955 123.793 12.6802 123.775 13.1835V23.3898C123.793 23.7626 123.653 24.1354 123.39 24.3964C123.119 24.6667 122.753 24.8065 122.369 24.7972V24.7879Z" fill="white"/>
<path fill-rule="evenodd" clip-rule="evenodd" d="M135.492 24.024C135.746 24.4807 136.255 24.751 136.782 24.7417C137.481 24.7376 138.055 24.1935 138.09 23.502C138.072 23.0826 137.921 22.6818 137.657 22.3556L135.662 19.5687L135.935 19.3636C137.021 18.5837 137.654 17.3272 137.629 15.9988C137.629 13.4542 135.671 11.7392 132.734 11.7392H129.185C128.797 11.7234 128.421 11.8683 128.145 12.1389C127.87 12.4096 127.722 12.7815 127.735 13.1653V23.3156C127.707 23.8347 127.971 24.3265 128.422 24.5926C128.872 24.875 129.444 24.883 129.901 24.6132C130.359 24.3434 130.624 23.8416 130.587 23.3156V20.3143H132.988L135.492 24.024ZM132.753 17.9561H130.588V14.1066H132.753C133.939 14.1066 134.73 14.8709 134.73 16.0174C134.754 16.542 134.554 17.0524 134.177 17.422C133.8 17.7916 133.282 17.9857 132.753 17.9561Z" fill="white"/>
<path d="M142.277 24.7875C141.874 24.8005 141.484 24.6508 141.199 24.3738C140.913 24.0968 140.758 23.717 140.768 23.3242V13.2018C140.749 12.8065 140.902 12.4216 141.189 12.1427C141.477 11.8638 141.872 11.7168 142.277 11.7384H148.76C149.476 11.7384 150.058 12.2977 150.058 12.9967C150.058 13.6958 149.476 14.2643 148.76 14.2643H143.718V16.8742H147.06C147.719 16.8742 148.244 17.3775 148.244 18.0113C148.244 18.6451 147.719 19.1578 147.06 19.1578H143.718V22.2616H149.017C149.733 22.2616 150.316 22.8208 150.316 23.5199C150.316 24.2189 149.733 24.7782 149.017 24.7782L142.277 24.7875Z" fill="white"/>
<path d="M3.2288 35.5513C1.8537 34.8947 0.945426 33.5555 0.85423 32.0499C0.763035 30.5443 1.50317 29.1077 2.78921 28.2939C4.07526 27.4802 5.7063 27.4166 7.05336 28.1276C9.07862 29.1965 9.86592 31.6688 8.82467 33.6899C7.78343 35.711 5.29623 36.5384 3.2288 35.5513Z" fill="#F54703"/>
<path d="M2.26521 7.26895C-0.462305 12.2595 0.621981 18.4371 4.89269 22.2386C5.36697 22.6679 6.10684 22.6586 6.56214 22.2293C8.41501 20.5067 8.99934 17.8398 8.03239 15.5191C6.97111 13.1123 7.60259 10.307 9.5975 8.56619C11.6298 6.78808 14.5523 6.39363 16.9962 7.56759C19.4187 8.69718 20.8413 11.2189 20.5343 13.8392C20.1762 16.4643 18.1851 18.5875 15.5544 19.1495C13.0519 19.7324 11.1467 21.7318 10.7168 24.2265C10.6219 24.8331 11.0488 25.4024 11.6938 25.5144C18.1914 26.6343 24.5656 23.0319 26.643 17.0776C28.7298 11.1047 25.8841 4.59979 19.9746 1.79999C13.6004 -1.20514 5.54719 1.28669 2.26521 7.26895Z" fill="url(#paint0_linear_507_9538)"/>
<defs>
<linearGradient id="paint0_linear_507_9538" x1="19.9278" y1="29.7231" x2="30.7736" y2="7.0079" gradientUnits="userSpaceOnUse">
<stop stop-color="#F54703"/>
<stop offset="1" stop-color="#FAC902"/>
</linearGradient>
</defs>
</svg>
